<?xml version="1.0" encoding="UTF-8"?>
<svg width="126px" height="53px" viewBox="0 0 126 53" version="1.1" xmlns="http://www.w3.org/2000/svg" xmlns:xlink="http://www.w3.org/1999/xlink">
    <title>Logo/Full Colour</title>
    <defs>
        <polygon id="path-1" points="0 52.0475429 125.133097 52.0475429 125.133097 0 0 0"></polygon>
    </defs>
    <g id="Symbol" stroke="none" stroke-width="1" fill="none" fill-rule="evenodd">
        <g id="Header/Dark-Inactive" transform="translate(-18.000000, -15.000000)">
            <g id="Logo/Full-Colour" transform="translate(18.000000, 15.000000)">
                <g id="Group-36" transform="translate(0.000000, 0.000000)">
                    <path d="M57.9831497,4.26937829 L56.290624,4.26937829 L52.3383269,16.0011726 L54.4337783,16.0011726 L55.1371154,13.647504 L59.1390354,13.647504 L59.847424,16.0011726 L61.9402011,16.0011726 L57.9831497,4.26937829 Z M55.6963383,11.7633211 L57.1279726,6.968624 L58.5697097,11.7633211 L55.6963383,11.7633211 Z" id="Fill-1" fill="#FFFFFF"></path>
                    <g id="Group-35">
                        <path d="M62.852192,13.1031383 L62.852192,8.191664 L64.6790263,8.191664 L64.6790263,12.6508869 C64.6790263,13.8935383 65.0816549,14.6390697 66.2699291,14.6390697 C67.6617463,14.6390697 68.1639177,13.7170354 68.1639177,12.5935383 L68.1639177,8.191664 L69.990752,8.191664 L69.990752,16.0011726 L68.1639177,16.0011726 L68.1639177,14.9127383 C67.6941349,15.750384 66.8737234,16.2026354 65.7502263,16.2026354 C64.0428434,16.2026354 62.852192,15.2083954 62.852192,13.1031383" id="Fill-2" fill="#FFFFFF"></path>
                        <path d="M71.5470971,13.6052206 L73.3739314,13.6052206 C73.3739314,14.273792 74.0276457,14.7435749 74.9672114,14.7435749 C75.6533143,14.7435749 76.0883314,14.375712 76.0883314,13.8215406 C76.0883314,13.3865234 75.9044,13.1179063 75.0667543,12.9018834 L73.50824,12.4817234 C72.4195086,12.1810149 71.80056,11.392992 71.80056,10.2870263 C71.80056,8.96206629 73.0556914,7.99040914 74.7981371,7.99040914 C76.7096571,7.99040914 77.8827771,8.91244343 77.8827771,10.4213349 L76.0883314,10.4213349 C76.0883314,9.76762057 75.5912114,9.38222629 74.7309829,9.38222629 C74.0799429,9.38222629 73.61016,9.71770057 73.61016,10.1874834 C73.61016,10.6052663 73.8585714,10.8911177 74.5818171,11.0922834 L76.1403314,11.544832 C77.2465943,11.8627749 77.9499314,12.6656549 77.9499314,13.7817234 C77.9499314,15.3078491 76.75928,16.2126491 74.8652914,16.2126491 C72.9713029,16.2126491 71.5470971,15.1063863 71.5470971,13.6150263" id="Fill-4" fill="#FFFFFF"></path>
                        <path d="M83.9300503,14.3932434 L83.9300503,16.0013806 C83.4807703,16.0691291 83.0270331,16.1024091 82.5729989,16.1009711 C81.6857303,16.1009711 80.0425303,15.9841463 80.0425303,13.3666149 L80.0425303,9.71799771 L78.7202446,9.71799771 L78.7202446,8.191872 L80.0351017,8.191872 L80.0351017,5.83047771 L81.861936,5.83047771 L81.861936,8.191872 L83.6540046,8.191872 L83.6540046,9.71799771 L81.861936,9.71799771 L81.861936,12.934272 C81.861936,14.2913234 82.282096,14.4603977 83.0029646,14.4603977 C83.3105074,14.4577234 83.6177531,14.4354377 83.9226217,14.3932434" id="Fill-6" fill="#FFFFFF"></path>
                        <path d="M85.3044549,8.191664 L87.1312891,8.191664 L87.1312891,9.70025829 C87.2436091,9.23612114 87.5104434,8.823984 87.888112,8.53189257 C88.2657806,8.239504 88.7317006,8.08439543 89.2092091,8.09212114 C89.4513806,8.08588114 89.6932549,8.108464 89.9300777,8.15927543 L89.9300777,9.84704686 C89.6908777,9.820304 89.4498949,9.80930971 89.2092091,9.81465829 C87.919312,9.81465829 87.1312891,10.7866126 87.1312891,12.5489669 L87.1312891,16.0011726 L85.3044549,16.0011726 L85.3044549,8.191664 Z" id="Fill-8" fill="#FFFFFF"></path>
                        <path d="M90.415104,12.0965669 C90.415104,9.79994971 91.8716983,7.99034971 94.302624,7.99034971 C94.7860754,7.97370971 95.2659611,8.08008686 95.6971154,8.30026971 C96.1279726,8.52045257 96.4958354,8.84641829 96.7656411,9.24815543 L96.7656411,8.19181257 L98.5752411,8.19181257 L98.5752411,16.0013211 L96.7656411,16.0013211 L96.7656411,14.9449783 C96.2810011,15.7330011 95.2071269,16.202784 94.252704,16.202784 C91.7397669,16.202784 90.415104,14.393184 90.415104,12.0965669 M96.8327954,12.0965669 C96.8327954,10.7567497 96.087264,9.61096686 94.5213211,9.61096686 C93.0944411,9.61096686 92.2419383,10.6673097 92.2419383,12.0965669 C92.2419383,13.525824 93.0944411,14.5821669 94.5213211,14.5821669 C96.0798354,14.5821669 96.8327954,13.4411383 96.8327954,12.0965669" id="Fill-10" fill="#FFFFFF"></path>
                        <mask id="mask-2" fill="white">
                            <use xlink:href="#path-1"></use>
                        </mask>
                        <g id="Clip-13"></g>
                        <polygon id="Fill-12" fill="#FFFFFF" mask="url(#mask-2)" points="100.588206 16.00144 102.41504 16.00144 102.41504 4.27202286 100.588206 4.27202286"></polygon>
                        <path d="M104.087717,5.71364114 C104.087717,5.35380114 104.230642,5.00852114 104.485294,4.75386971 C104.739648,4.49951543 105.084928,4.35658971 105.444768,4.35658971 C105.804905,4.35658971 106.149888,4.49951543 106.404539,4.75386971 C106.658894,5.00852114 106.801819,5.35380114 106.801819,5.71364114 C106.801819,6.07348114 106.658894,6.41876114 106.404539,6.67341257 C106.149888,6.92776686 105.804905,7.07069257 105.444768,7.07069257 C105.084928,7.07069257 104.739648,6.92776686 104.485294,6.67341257 C104.230642,6.41876114 104.087717,6.07348114 104.087717,5.71364114 L104.087717,5.71364114 Z M104.539968,16.0013211 L106.349568,16.0013211 L106.349568,8.19924114 L104.539968,8.19924114 L104.539968,16.0013211 Z" id="Fill-14" fill="#FFFFFF" mask="url(#mask-2)"></path>
                        <path d="M107.925703,12.0965669 C107.925703,9.79994971 109.384674,7.99034971 111.813223,7.99034971 C112.296674,7.97370971 112.77656,8.08008686 113.207714,8.30026971 C113.638571,8.52045257 114.006434,8.84641829 114.27624,9.24815543 L114.27624,8.19181257 L116.075737,8.19181257 L116.075737,16.0013211 L114.266434,16.0013211 L114.266434,14.9449783 C113.781794,15.7330011 112.70792,16.202784 111.753497,16.202784 C109.24056,16.202784 107.915897,14.393184 107.915897,12.0965669 M114.333589,12.0965669 C114.333589,10.7567497 113.58776,9.61096686 112.021817,9.61096686 C110.597611,9.61096686 109.742731,10.6673097 109.742731,12.0965669 C109.742731,13.525824 110.597611,14.5821669 112.021817,14.5821669 C113.580331,14.5821669 114.333589,13.4411383 114.333589,12.0965669" id="Fill-15" fill="#FFFFFF" mask="url(#mask-2)"></path>
                        <path d="M117.910089,8.19169371 L119.736923,8.19169371 L119.736923,9.28280229 C120.221563,8.44277943 121.129038,7.99023086 122.284626,7.99023086 C124.161381,7.99023086 125.133038,9.04687086 125.133038,11.0924023 L125.133038,16.0012023 L123.306203,16.0012023 L123.306203,11.930048 C123.306203,10.2696137 122.871186,9.54874514 121.596146,9.54874514 C120.408169,9.54874514 119.736923,10.336768 119.736923,11.7113509 L119.736923,16.0012023 L117.910089,16.0012023 L117.910089,8.19169371 Z" id="Fill-16" fill="#FFFFFF" mask="url(#mask-2)"></path>
                        <path d="M60.6824549,24.3702606 C60.6824549,26.7664206 59.0071634,28.4764777 56.6609234,28.4764777 L54.2647634,28.4764777 L54.2647634,31.9934606 L52.3383863,31.9934606 L52.3383863,20.2640434 L56.6707291,20.2640434 C59.0172663,20.2640434 60.6922606,21.9741006 60.6922606,24.3702606 M58.7661806,24.3702606 C58.7661806,22.9956777 57.8266149,21.991632 56.553952,21.991632 L54.2745691,21.991632 L54.2745691,26.7488891 L56.553952,26.7488891 C57.8266149,26.7488891 58.7661806,25.7546491 58.7661806,24.3702606" id="Fill-17" fill="#FFFFFF" mask="url(#mask-2)"></path>
                        <path d="M61.336288,28.091024 C61.336288,25.7944069 62.7928823,23.9848069 65.2211337,23.9848069 C65.7048823,23.9675726 66.1850651,24.0736526 66.6165166,24.2932411 C67.047968,24.5128297 67.416128,24.8387954 67.6868251,25.2399383 L67.6868251,24.1862697 L69.4964251,24.1862697 L69.4964251,31.9934011 L67.6868251,31.9934011 L67.6868251,30.9394354 C67.1897051,31.724784 66.1283109,32.182384 65.1715109,32.182384 C62.6585737,32.182384 61.336288,30.372784 61.336288,28.078544 M67.7539794,28.078544 C67.7539794,26.7363497 67.008448,25.592944 65.4398309,25.592944 C64.0156251,25.592944 63.1607451,26.6469097 63.1607451,28.078544 C63.1607451,29.5101783 64.0156251,30.564144 65.4398309,30.564144 C66.9983451,30.564144 67.7539794,29.4257897 67.7539794,28.078544" id="Fill-18" fill="#FFFFFF" mask="url(#mask-2)"></path>
                        <path d="M78.6679474,24.1863291 L78.6679474,32.0282263 C78.6679474,33.2512663 78.3000846,34.1733006 77.6463703,34.8094834 C77.0101874,35.3963406 76.1053874,35.7142834 74.9991246,35.7142834 C73.843536,35.7142834 72.938736,35.428432 72.3174103,34.9090263 C72.0354217,34.6534834 71.8119703,34.3402949 71.6619131,33.9908549 C71.511856,33.6414149 71.4387589,33.2634491 71.447376,32.8834034 L73.2917417,32.8834034 C73.3737531,33.7359063 73.7888617,34.2056891 74.9643589,34.2056891 C76.0557646,34.2056891 76.8434903,33.5519749 76.8434903,31.8939177 L76.8434903,30.8996777 C76.3463703,31.7373234 75.4864389,32.189872 74.328176,32.189872 C72.4017989,32.189872 71.447376,30.8152891 71.447376,28.938832 L71.447376,24.1863291 L73.2742103,24.1863291 L73.2742103,28.5584891 C73.2742103,29.716752 73.6596046,30.5867863 74.9643589,30.5867863 C76.2694103,30.5867863 76.8434903,29.5652091 76.8434903,28.2230149 L76.8434903,24.1863291 L78.6679474,24.1863291 Z" id="Fill-19" fill="#FFFFFF" mask="url(#mask-2)"></path>
                        <path d="M80.6215726,24.1862103 L82.4460297,24.1862103 L82.4460297,25.2749417 C82.6510583,24.8764731 82.9642469,24.5439703 83.3499383,24.3154674 C83.7356297,24.0872617 84.1777783,23.9728617 84.6258697,23.9847474 C86.0500754,23.9847474 86.7534126,24.603696 87.0888869,25.3741874 C87.3188754,24.9430331 87.6641554,24.5846789 88.0866926,24.3392389 C88.5092297,24.0937989 88.9917897,23.9710789 89.4799954,23.9847474 C91.8265326,23.9847474 92.2963154,25.5931817 92.2963154,27.0521531 L92.2963154,31.9933417 L90.4742354,31.9933417 L90.4742354,27.4024846 C90.4742354,26.1125874 89.9771154,25.5432617 89.015264,25.5432617 C88.0956069,25.5432617 87.3723611,25.9958103 87.3723611,27.8550331 L87.3723611,31.9933417 L85.547904,31.9933417 L85.547904,27.3852503 C85.547904,26.095056 85.0781211,25.5432617 84.1236983,25.5432617 C83.1692754,25.5432617 82.4460297,25.9958103 82.4460297,27.8550331 L82.4460297,31.9933417 L80.6215726,31.9933417 L80.6215726,24.1862103 Z" id="Fill-20" fill="#FFFFFF" mask="url(#mask-2)"></path>
                        <path d="M101.271575,28.6926789 L95.4752091,28.6926789 C95.524832,29.9353303 96.327712,30.6041989 97.652672,30.6041989 C98.557472,30.6041989 99.094112,30.3183474 99.3924434,29.714256 L101.236809,29.714256 C101.000581,31.1732274 99.526752,32.199856 97.6499977,32.199856 C95.1869806,32.199856 93.6733349,30.6264846 93.6733349,28.0936389 C93.6733349,25.5607931 95.2143177,23.990096 97.5929463,23.990096 C99.8298377,23.990096 101.321198,25.4986903 101.321198,27.6933874 C101.321198,28.0116274 101.303963,28.2627131 101.269198,28.6876274 L101.271575,28.6926789 Z M99.5291291,27.2981874 C99.514272,26.0903017 98.8082606,25.4217303 97.5531291,25.4217303 C96.2979977,25.4217303 95.4927406,26.1922217 95.4752091,27.2981874 L99.5291291,27.2981874 Z" id="Fill-21" fill="#FFFFFF" mask="url(#mask-2)"></path>
                        <path d="M102.688471,24.1861806 L104.512928,24.1861806 L104.512928,25.274912 C105.010048,24.4372663 105.904745,23.9847177 107.060631,23.9847177 C108.937088,23.9847177 109.909042,25.0386834 109.909042,27.0842149 L109.909042,31.993312 L108.084585,31.993312 L108.084585,27.9218606 C108.084585,26.2641006 107.647191,25.543232 106.374528,25.543232 C105.183877,25.543232 104.512928,26.3312549 104.512928,27.7031634 L104.512928,31.993312 L102.688471,31.993312 L102.688471,24.1861806 Z" id="Fill-22" fill="#FFFFFF" mask="url(#mask-2)"></path>
                        <path d="M116.259461,30.3853531 L116.259461,31.9934903 C115.810478,32.0633189 115.356741,32.0974903 114.902409,32.0954998 C114.015141,32.0954998 112.371941,31.9786331 112.371941,29.3462446 L112.371941,25.7101074 L111.049655,25.7101074 L111.049655,24.1863589 L112.371941,24.1863589 L112.371941,21.8225874 L114.199072,21.8225874 L114.199072,24.1863589 L115.991141,24.1863589 L115.991141,25.7101074 L114.199072,25.7101074 L114.199072,28.9412389 C114.199072,30.2982903 114.616558,30.4649874 115.337426,30.4649874 C115.645861,30.4637989 115.953998,30.441216 116.259461,30.3978331" id="Fill-23" fill="#FFFFFF" mask="url(#mask-2)"></path>
                        <path d="M117.146907,29.5974194 L118.973742,29.5974194 C118.973742,30.2686651 119.627456,30.7381509 120.567022,30.7381509 C121.253125,30.7381509 121.688142,30.3679109 121.688142,29.8161166 C121.688142,29.3810994 121.50421,29.1127794 120.666565,28.8940823 L119.10805,28.4887794 C118.019319,28.1856937 117.397993,27.3976709 117.397993,26.2917051 C117.397993,24.9694194 118.655502,23.9974651 120.397947,23.9974651 C122.309467,23.9974651 123.482587,24.9194994 123.482587,26.4257166 L121.688142,26.4257166 C121.688142,25.7720023 121.191022,25.3869051 120.330793,25.3869051 C119.677079,25.3869051 119.20997,25.7223794 119.20997,26.1921623 C119.20997,26.6123223 119.458382,26.8954994 120.17925,27.0969623 L121.740142,27.5492137 C122.84373,27.8674537 123.549742,28.6727109 123.549742,29.7864023 C123.549742,31.3098537 122.35909,32.2146537 120.465102,32.2146537 C118.571113,32.2146537 117.146907,31.108688 117.146907,29.617328" id="Fill-24" fill="#FFFFFF" mask="url(#mask-2)"></path>
                        <path d="M60.5932526,40.2504663 C60.5932526,42.6466263 58.915584,44.3566834 56.5717211,44.3566834 L54.1853669,44.3566834 L54.1853669,47.8760434 L52.2468069,47.8760434 L52.2468069,36.1469234 L56.5717211,36.1469234 C58.915584,36.1469234 60.5932526,37.8543063 60.5932526,40.2504663 M58.6644983,40.2504663 C58.6644983,38.8758834 57.7249326,37.8718377 56.4522697,37.8718377 L54.1853669,37.8718377 L54.1853669,42.6317691 L56.4647497,42.6317691 C57.7374126,42.6317691 58.6769783,41.6250491 58.6769783,40.2504663" id="Fill-25" fill="#FFFFFF" mask="url(#mask-2)"></path>
                        <polygon id="Fill-26" fill="#FFFFFF" mask="url(#mask-2)" points="62.1245486 47.8762514 63.9513829 47.8762514 63.9513829 36.1468343 62.1245486 36.1468343"></polygon>
                        <path d="M65.7185806,44.9780983 L65.7185806,40.066624 L67.5454149,40.066624 L67.5454149,44.5258469 C67.5454149,45.7684983 67.9480434,46.5140297 69.1363177,46.5140297 C70.5281349,46.5140297 71.0303063,45.5919954 71.0303063,44.4684983 L71.0303063,40.066624 L72.8571406,40.066624 L72.8571406,47.8761326 L71.0303063,47.8761326 L71.0303063,46.7876983 C70.5605234,47.625344 69.740112,48.0775954 68.6166149,48.0775954 C66.909232,48.0775954 65.7185806,47.0708754 65.7185806,44.9780983" id="Fill-27" fill="#FFFFFF" mask="url(#mask-2)"></path>
                        <path d="M74.3183109,45.480032 L76.1451451,45.480032 C76.1451451,46.1486034 76.7988594,46.6183863 77.736048,46.6183863 C78.424528,46.6183863 78.8595451,46.2505234 78.8595451,45.696352 C78.8595451,45.2613349 78.6756137,44.9927177 77.837968,44.7766949 L76.2794537,44.3565349 C75.1907223,44.0558263 74.5693966,43.2678034 74.5693966,42.1618377 C74.5693966,40.8368777 75.8269051,39.8652206 77.5693509,39.8652206 C79.4808709,39.8652206 80.6516137,40.7872549 80.6516137,42.2961463 L78.8595451,42.2961463 C78.8595451,41.642432 78.3624251,41.2570377 77.5021966,41.2570377 C76.8484823,41.2570377 76.3786994,41.592512 76.3786994,42.0622949 C76.3786994,42.4800777 76.627408,42.7659291 77.3506537,42.9670949 L78.909168,43.4196434 C80.0151337,43.7375863 80.718768,44.5404663 80.718768,45.6565349 C80.718768,47.1826606 79.5304937,48.0874606 77.6365051,48.0874606 C75.7425166,48.0874606 74.3183109,46.971392 74.3183109,45.480032" id="Fill-28" fill="#FFFFFF" mask="url(#mask-2)"></path>
                        <path d="M42.5205486,26.172224 C42.5178743,28.7748983 41.4829257,31.270304 39.6430171,33.1108069 C37.8028114,34.9513097 35.3077029,35.9868526 32.7050286,35.9901211 L26.3669714,35.9901211 L26.3669714,31.5160411 L32.7050286,31.5160411 C34.1224,31.5160411 35.4815314,30.9532526 36.4837943,29.9509897 C37.4860571,28.9487269 38.0491429,27.5895954 38.0491429,26.172224 C38.0491429,24.7548526 37.4860571,23.3957211 36.4837943,22.3934583 C35.4815314,21.3911954 34.1224,20.8284069 32.7050286,20.8284069 L0,20.8284069 L0,16.3543269 L32.7050286,16.3543269 C35.3074057,16.3561097 37.8022171,17.3907611 39.64272,19.2303726 C41.4829257,21.0702811 42.5178743,23.5650926 42.5205486,26.1671726" id="Fill-29" fill="#9E8AEF" mask="url(#mask-2)"></path>
                        <polygon id="Fill-30" fill="#9E8AEF" mask="url(#mask-2)" points="21.8928914 31.51616 26.3669714 31.51616 26.3669714 19.7097829 21.8928914 19.7097829"></polygon>
                        <path d="M26.3471223,9.95146286 L26.3471223,17.5101829 L21.8730423,17.5101829 L21.8730423,9.95146286 C21.8884937,9.24307429 21.762208,8.53884571 21.5016137,7.88008 C21.2410194,7.22101714 20.8517623,6.62078857 20.356128,6.11445714 C19.8604937,5.60812571 19.2688823,5.20579429 18.6157623,4.93093714 C17.9626423,4.65637714 17.2613851,4.51493714 16.5526994,4.51493714 C15.8443109,4.51493714 15.1427566,4.65637714 14.4896366,4.93093714 C13.8365166,5.20579429 13.2449051,5.60812571 12.7492709,6.11445714 C12.2539337,6.62078857 11.8643794,7.22101714 11.6037851,7.88008 C11.343488,8.53884571 11.2172023,9.24307429 11.2323566,9.95146286 L11.2323566,17.5101829 L6.75827657,17.5101829 L6.75827657,9.95146286 C6.73777371,8.65205714 6.97578514,7.36156571 7.45864229,6.15516571 C7.94149943,4.94876571 8.65969371,3.85052571 9.571328,2.92433143 C10.4829623,1.99813714 11.5696137,1.26270857 12.768288,0.760537143 C13.9666651,0.258365714 15.2532937,-0.000148571429 16.5526994,-0.000148571429 C17.8524023,-0.000148571429 19.1387337,0.258365714 20.337408,0.760537143 C21.5360823,1.26270857 22.6227337,1.99813714 23.534368,2.92433143 C24.4457051,3.85052571 25.1638994,4.94876571 25.6467566,6.15516571 C26.1299109,7.36156571 26.3679223,8.65205714 26.3471223,9.95146286" id="Fill-31" fill="#9E8AEF" mask="url(#mask-2)"></path>
                        <polygon id="Fill-32" fill="#9E8AEF" mask="url(#mask-2)" points="0 35.99024 7.92896 35.99024 7.92896 31.51616 0 31.51616"></polygon>
                        <polygon id="Fill-33" fill="#9E8AEF" mask="url(#mask-2)" points="21.8752114 31.5162194 10.1110286 31.5162194 10.1110286 35.9902994 21.89512 35.9902994 21.89512 31.5162194"></polygon>
                        <path d="M26.3667931,35.99024 L26.3667931,42.4079314 C26.3257874,44.9785143 25.2759817,47.4299429 23.4435017,49.2333029 C21.6113189,51.0366629 19.1432503,52.0475429 16.5723703,52.0475429 C14.0014903,52.0475429 11.5337189,51.0366629 9.70123886,49.2333029 C7.869056,47.4299429 6.81895314,44.9785143 6.77794743,42.4079314 L6.77794743,19.7074057 L11.2520274,19.7074057 L11.2520274,42.4079314 C11.2820389,43.7991543 11.8558217,45.1232229 12.8503589,46.0963657 C13.844896,47.0695086 15.1808503,47.6144686 16.5723703,47.6144686 C17.9638903,47.6144686 19.3001417,47.0695086 20.2943817,46.0963657 C21.2889189,45.1232229 21.8627017,43.7991543 21.8927131,42.4079314 L21.8927131,35.99024 L26.3667931,35.99024 Z" id="Fill-34" fill="#9E8AEF" mask="url(#mask-2)"></path>
                    </g>
                </g>
            </g>
        </g>
    </g>
</svg>